<?xml version="1.0" encoding="UTF-8"?>
<svg xmlns="http://www.w3.org/2000/svg" viewBox="0 0 32 32">
  <path d="m32,20c0-4.61-2.61-8.61-6.42-10.62l-2,3.47c2.62,1.32,4.42,4.03,4.42,7.15,0,4.41-3.59,8-8,8H0v4h32v-4h-3.08c1.91-2.13,3.08-4.92,3.08-8Z"/>
  <rect x="4" y="24" width="16" height="2"/>
  <path d="m26.27,4.5c.83-1.43.33-3.27-1.1-4.1-.47-.27-.99-.4-1.5-.4-1.03,0-2.04.54-2.6,1.5l-7,12.13,5.2,3,7-12.13Z"/>
  <rect x="14.17" y="12.73" width="2" height="10" transform="translate(-7.77 22) rotate(-60)"/>
</svg>