<?xml version="1.0" encoding="UTF-8"?>
<svg xmlns="http://www.w3.org/2000/svg" viewBox="0 0 32 32">
  <path d="m16,0C7.16,0,0,7.16,0,16s7.16,16,16,16,16-7.16,16-16S24.83,0,16,0Zm0,28c-6.62,0-12-5.38-12-12S9.38,4,16,4s12,5.38,12,12-5.38,12-12,12Z"/>
  <path d="m16.99,21.76c-.48.25-1.5.25-1.98,0-.49-.26-1.09-.07-1.35.41-.26.49-.07,1.09.41,1.35.53.28,1.22.42,1.92.42s1.39-.14,1.92-.42c.49-.26.68-.86.42-1.35-.26-.49-.86-.67-1.35-.42Z"/>
  <path d="m15.1,14.09c.16-.53-.14-1.09-.67-1.24-.53-.16-1.09.15-1.24.67-.26.87-1.18,1.18-1.89,1.18s-1.63-.31-1.89-1.18c-.16-.53-.71-.83-1.24-.67-.53.16-.83.71-.67,1.24.47,1.59,1.96,2.61,3.8,2.61s3.33-1.02,3.8-2.61Z"/>
  <path d="m23.83,12.85c-.53-.16-1.09.15-1.24.67-.26.87-1.18,1.18-1.89,1.18s-1.63-.31-1.89-1.18c-.16-.53-.71-.83-1.24-.67-.53.16-.83.71-.67,1.24.47,1.59,1.96,2.61,3.8,2.61s3.33-1.02,3.8-2.61c.16-.53-.14-1.09-.67-1.24Z"/>
</svg>