<?xml version="1.0" encoding="UTF-8"?>
<svg xmlns="http://www.w3.org/2000/svg" viewBox="0 0 46 32">
  <path d="m30,0h-14C11.58,0,7.58,1.79,4.68,4.68,1.79,7.58,0,11.58,0,16c0,8.84,7.16,16,16,16h14c4.42,0,8.42-1.79,11.32-4.68,2.89-2.9,4.68-6.9,4.68-11.32C46,7.16,38.84,0,30,0ZM11.91,22.58c2.38,2.97,7.1,3.77,10.52,1.96.32-.18.64-.37.93-.6l.54.54c-4.38,4.3-11.88,5.07-16.97.01-4.65-4.46-4.65-12.52,0-16.98,5.09-5.06,12.59-4.29,16.97,0l-.53.52c-.29-.23-.6-.42-.93-.6-3.15-1.68-7.55-1.09-9.99,1.37-3.82,3.75-4,9.73-.54,13.77Z"/>
</svg>