<?xml version="1.0" encoding="UTF-8"?>
<svg xmlns="http://www.w3.org/2000/svg" viewBox="0 0 32 32">
  <path d="m16,9.01c-3.8,0-6.94,3.09-6.94,6.94s3.09,6.94,6.94,6.94,6.94-3.14,6.94-6.94-3.14-6.94-6.94-6.94Zm0,11.39c-2.44,0-4.45-2.01-4.45-4.45s2.01-4.45,4.45-4.45,4.45,2.01,4.45,4.45-2.01,4.45-4.45,4.45Z"/>
  <circle cx="23.21" cy="8.84" r="1.57"/>
  <path d="m27.28,4.78c-1.41-1.46-3.42-2.22-5.69-2.22h-11.17c-4.72,0-7.86,3.14-7.86,7.86v11.12c0,2.33.76,4.34,2.28,5.8,1.46,1.41,3.42,2.11,5.64,2.11h11.06c2.33,0,4.28-.76,5.69-2.11,1.46-1.41,2.22-3.42,2.22-5.75v-11.17c0-2.28-.76-4.23-2.17-5.64Zm-.22,16.81c0,1.68-.6,3.04-1.57,3.96s-2.33,1.41-3.96,1.41h-11.06c-1.63,0-2.98-.49-3.96-1.41-.98-.98-1.46-2.33-1.46-4.01v-11.12c0-1.63.49-2.98,1.46-3.96.92-.92,2.33-1.41,3.96-1.41h11.17c1.63,0,2.98.49,3.96,1.46.92.98,1.46,2.33,1.46,3.9v11.17h0Z"/>
</svg>