<?xml version="1.0" encoding="UTF-8"?>
<svg xmlns="http://www.w3.org/2000/svg" viewBox="0 0 32 32">
  <defs>
    <style>
      .flag-clip-mask {
        clip-path: url(#clippath);
      }
      .green-flag-color {
        fill: #01ab58;
      }
      .white-flag-color {
        fill: #f1f5f9;
      }
    </style>
    <clipPath id="clippath">
      <rect id="mask" data-name="mask" width="32" height="32" rx="8" ry="8"/>
    </clipPath>
  </defs>
  <g id="ar-flag" class="flag-clip-mask">
    <rect class="green-flag-color" width="32" height="32"/>
    <path class="white-flag-color" d="m10.12,24.73c-.91,0-1.71-.16-2.4-.47-.7-.32-1.29-.75-1.77-1.31s-.85-1.2-1.1-1.92c-.25-.72-.37-1.48-.37-2.28-.01-.6.04-1.21.14-1.83.11-.62.27-1.21.49-1.79.1-.29.2-.49.31-.61.1-.12.26-.15.46-.08l1.28.39c.23.07.37.17.41.28.04.12.02.27-.07.47-.17.43-.28.85-.35,1.26s-.11.79-.11,1.15c0,.63.12,1.2.35,1.71s.58.92,1.05,1.22c.47.3,1.08.45,1.82.45,1.18,0,2.02-.33,2.54-.98s.77-1.56.76-2.71c0-.35-.02-.69-.07-1.02-.04-.34-.11-.71-.19-1.11-.08-.4-.19-.86-.32-1.38-.1-.39.03-.63.38-.73l1.63-.47c.18-.04.31-.02.39.06.08.09.15.21.2.37l.34,1.38c.12.43.23.8.34,1.1.11.3.27.56.49.78.55-1.29,1.2-2.39,1.95-3.29.75-.9,1.54-1.58,2.4-2.06.85-.47,1.71-.71,2.58-.71s1.59.2,2.17.6c.58.4,1,.92,1.28,1.56.28.64.42,1.33.42,2.08,0,1.14-.23,2.11-.68,2.93-.45.82-1.14,1.44-2.06,1.88s-2.09.65-3.51.65c-.74,0-1.39-.02-1.95-.06s-1.04-.1-1.45-.16c-.41-.06-.76-.16-1.06-.28-.3-.12-.57-.25-.8-.4-.08.73-.27,1.42-.57,2.07-.31.65-.72,1.21-1.23,1.7-.51.49-1.11.87-1.8,1.15-.69.28-1.46.42-2.32.42Zm8.89-8.02h3.53c.88,0,1.55-.14,1.99-.42.45-.28.67-.67.67-1.18,0-.45-.18-.81-.53-1.09-.35-.28-.81-.41-1.37-.38-.52,0-1.04.14-1.55.41-.51.27-1,.64-1.47,1.09-.47.45-.89.97-1.27,1.56Zm4.41-8c-.08.09-.18.13-.31.12-.13,0-.24-.05-.33-.14l-1.02-1.14c-.09-.1-.13-.22-.13-.36s.04-.26.13-.36l1.02-1.14c.09-.1.19-.15.32-.16s.22.05.3.16l1,1.14c.23.26.24.5.04.73l-1.02,1.14Z"/>
  </g>
</svg>