<?xml version="1.0" encoding="UTF-8"?>
<svg xmlns="http://www.w3.org/2000/svg" viewBox="0 0 32 32">
  <defs>
    <style>
      .flag-clip-mask {
        clip-path: url(#clippath);
      }
      .green-flag-color {
        fill: #01ab58;
      }
      .red-flag-color {
        fill: #eb1d33;
      }
      .yellow-flag-color {
        fill: #ffcd05;
      }
      .dark-yellow-flag-color {
        fill: #cb8c34;
      }
      .black-flag-color {
        fill: #1d293b;
      }
      .blue-flag-color {
        fill: #1e6ab3;
      }
      .white-flag-color {
        fill: #f1f5f9;
      }
    </style>
    <clipPath id="clippath">
      <rect id="mask" width="32" height="32" rx="4" ry="4"/>
    </clipPath>
  </defs>
  <g id="pt-flag">
    <g class="flag-clip-mask">
      <rect class="green-flag-color" width="12.8" height="32"/>
      <rect class="red-flag-color" x="12.8" width="19.2" height="32"/>
      <g id="emblem">
        <rect class="dark-yellow-flag-color" x="6.56" y="20.54" width="12.48" height=".98"/>
        <polygon class="dark-yellow-flag-color" points="9.07 18.12 8.66 19.01 4.78 17.2 5.19 16.31 9.07 18.12"/>
        <rect class="dark-yellow-flag-color" x="6.23" y="12.22" width=".98" height="4" transform="translate(-8.08 8.92) rotate(-45)"/>
        <polygon class="dark-yellow-flag-color" points="20.82 17.53 15.8 19.36 15.46 18.44 20.48 16.61 20.82 17.53"/>
        <polygon class="dark-yellow-flag-color" points="20.66 13.69 14.88 15.8 14.55 14.88 20.33 12.77 20.66 13.69"/>
        <path class="black-flag-color" d="m12.8,7c-4.97,0-9,4.03-9,9s4.03,9,9,9,9-4.03,9-9-4.03-9-9-9Zm7.17,8.49l-1.86-.49-.17-.05,1.84-.67c.09.4.17.8.19,1.21Zm-13.86-2.14l.68.25.91.91-.24.09-.77.28-.81-.81c.07-.24.14-.48.23-.72Zm-.31,1l.63.63-.79.29c.03-.32.09-.62.16-.92Zm-.96-1.45h.02l-.03.03s.01-.02.01-.03Zm1.52,6.29c-.19-.38-.35-.78-.47-1.2l1.52.71-1.05.49Zm12.91-.06l-.56-.56.92-.34c-.1.31-.22.61-.36.9Zm.45-1.2l-1.21.44-.74-.74c-.06.77-.3,1.49-.67,2.12l.54.54h-.92c-.06.09-.13.17-.21.25h1.38l.26.26c-.23.26-.49.5-.75.72h-2.1c-.16.09-.32.18-.49.25h2.27c-1.01.76-2.22,1.26-3.54,1.39v-1.03c-.24.04-.49.06-.74.06s-.5-.02-.74-.06v1.03c-1.32-.13-2.53-.64-3.54-1.39h2.27c-.17-.07-.33-.16-.49-.25h-2.11c-.35-.3-.67-.62-.96-.98h1.86c-.08-.08-.15-.16-.21-.25h-1.35l.78-.36.23-.12h.01l-.13-.24c-.05-.08-.1-.16-.14-.25-.14-.28-.24-.57-.32-.88l-.26.12-1.87-.87c-.07-.28-.14-.56-.18-.85l.38-.14,1.79.84c-.01-.09-.02-.19-.02-.29l-1.43-.67,1.21-.45.03.03.18.17h.01v-2.08l-.44-.44.1.04.34.12v-2.1l-.16-.06-.53-.2c.21-.27.44-.53.69-.77.05-.06.1-.1.16-.15,1.1-1.02,2.53-1.69,4.1-1.85v1.85h1.48v-1.85c1.58.16,3,.83,4.1,1.85.06.04.11.09.16.14v1.32l.19.05,1.09.29c.07.13.13.27.2.4l-1.48.54v.26l1.59-.58c.13.3.24.61.33.92l-1.92.7v1.72l.19.05,1.19.32-1.39.5c.01.1,0,.19,0,.28l1.82-.67.32.09c-.04.31-.12.61-.2.91Z"/>
        <path class="yellow-flag-color" d="m20.67,12.66c-.09-.21-.19-.42-.3-.63-.08-.15-.17-.31-.26-.46-.02-.03-.04-.07-.06-.1h-.01c-1.43-2.28-3.91-3.84-6.75-4.01-.16-.01-.33-.01-.49-.01s-.33,0-.49.01c-2.79.16-5.23,1.67-6.67,3.88-.2.31-.38.63-.54.96-.06.12-.12.24-.17.36-.44,1.03-.68,2.16-.68,3.34v.1c0,.15.01.3.02.45.01.18.03.34.05.51.13,1.04.45,2.03.92,2.93.16.29.33.58.52.85,1.46,2.11,3.84,3.54,6.55,3.7.16.01.33.01.49.01s.33,0,.49-.01c2.39-.14,4.51-1.26,5.98-2.97.33-.37.62-.78.88-1.21.58-.98.97-2.07,1.13-3.24.04-.33.06-.66.07-1v-.12c0-1.18-.24-2.31-.68-3.34Zm-.27,4.22c-.12,1.02-.43,1.97-.91,2.82l-1.75-1.75c-.08.56-.26,1.09-.52,1.57l1.42,1.42c-1.3,1.54-3.21,2.56-5.35,2.69v-1.47c-.16.02-.32.03-.49.03s-.33,0-.49-.03v1.47c-2.36-.15-4.43-1.37-5.72-3.18l1.61-.75c-.17-.29-.3-.59-.39-.91l-1.75.82c-.47-.87-.77-1.84-.87-2.87l2.36-.86v-1.05l-2.39.88c.03-.97.25-1.9.62-2.74l1.77.64v-1.57l-1.04-.38c1.29-1.87,3.39-3.14,5.8-3.29v2.32h.98v-2.32c2.17.13,4.09,1.17,5.39,2.74l-.63-.17v1.02l1.48.39h0c.57,1.06.9,2.26.92,3.53l-2.4-.64v1.02l2.35.62Z"/>
        <path class="black-flag-color" d="m7.55,10.44v6.75c0,2.9,2.35,5.25,5.25,5.25,1.45,0,2.76-.59,3.71-1.54s1.54-2.26,1.54-3.71v-6.75H7.55Zm10.25,6.75c0,2.76-2.24,5-5,5s-5-2.24-5-5v-6.5h10v6.5Z"/>
        <path class="red-flag-color" d="m7.8,10.69v6.5c0,2.76,2.24,5,5,5s5-2.24,5-5v-6.5H7.8Zm8.2,6.41c0,1.77-1.43,3.2-3.2,3.2s-3.2-1.43-3.2-3.2v-4.61h6.4v4.61Z"/>
        <path class="black-flag-color" d="m9.6,12.49v4.61c0,1.77,1.43,3.2,3.2,3.2s3.2-1.43,3.2-3.2v-4.61h-6.4Zm6.15,4.61c0,1.63-1.32,2.95-2.95,2.95s-2.95-1.32-2.95-2.95v-4.36h5.9v4.36Z"/>
        <path class="white-flag-color" d="m15.75,12.74v4.36c0,1.63-1.32,2.95-2.95,2.95s-2.95-1.32-2.95-2.95v-4.36h5.9Z"/>
        <rect class="yellow-flag-color" x="8.16" y="11.03" width="1.08" height="1.08"/>
        <rect class="yellow-flag-color" x="12.26" y="11.03" width="1.08" height="1.08"/>
        <rect class="yellow-flag-color" x="16.36" y="11.03" width="1.08" height="1.08"/>
        <rect class="yellow-flag-color" x="8.16" y="15.14" width="1.08" height="1.08"/>
        <rect class="yellow-flag-color" x="16.36" y="15.14" width="1.08" height="1.08"/>
        <rect class="yellow-flag-color" x="9.34" y="19.48" width="1.08" height="1.08" transform="translate(-11.27 12.85) rotate(-45)"/>
        <rect class="yellow-flag-color" x="15.18" y="19.48" width="1.08" height="1.08" transform="translate(-9.55 16.98) rotate(-45)"/>
        <path class="blue-flag-color" d="m12.8,14.75h0c-.33,0-.59-.26-.59-.59v-.83s1.18,0,1.18,0v.83c0,.33-.26.59-.59.59Z"/>
        <path class="blue-flag-color" d="m11.03,16.76h0c-.33,0-.59-.26-.59-.59v-.83s1.18,0,1.18,0v.83c0,.33-.26.59-.59.59Z"/>
        <path class="blue-flag-color" d="m12.8,16.76h0c-.33,0-.59-.26-.59-.59v-.83s1.18,0,1.18,0v.83c0,.33-.26.59-.59.59Z"/>
        <path class="blue-flag-color" d="m14.57,16.76h0c-.33,0-.59-.26-.59-.59v-.83s1.18,0,1.18,0v.83c0,.33-.26.59-.59.59Z"/>
        <path class="blue-flag-color" d="m12.8,18.78h0c-.33,0-.59-.26-.59-.59v-.83s1.18,0,1.18,0v.83c0,.33-.26.59-.59.59Z"/>
        <path class="red-flag-color" d="m17.64,10.69c.06.04.11.09.16.14v-.14h-.16Zm.13,6.94s.01-.02.01-.03h-.03s.02.03.02.03Zm-9.49,1.69c.07.17.16.34.26.49h.01l-.13-.24c-.05-.08-.1-.16-.14-.25Zm-.48-8.48c.05-.06.1-.1.16-.15h-.16v.15Z"/>
      </g>
    </g>
  </g>
</svg>