<?xml version="1.0" encoding="UTF-8"?>
<svg viewBox="0 0 36 24">
  <defs>
    <style>
      .flag-green {
        fill: #18a54a;
      }

      .flag-white {
        fill: #f1f5f9;
      }
    </style>
  </defs>
  <g id="ar-flag">
    <rect class="flag-green" width="36" height="24"/>
    <path class="flag-white" d="m12.92,18.51c-.78,0-1.48-.12-2.08-.36-.6-.24-1.11-.58-1.53-1.01s-.74-.92-.95-1.47c-.22-.55-.32-1.14-.32-1.76-.01-.46.03-.93.12-1.41.09-.47.23-.93.42-1.37.09-.22.18-.38.27-.47.09-.09.22-.11.4-.06l1.11.3c.2.06.32.13.36.22.04.09.02.21-.06.36-.14.33-.25.65-.31.97s-.09.61-.09.89c0,.49.1.92.3,1.32s.5.7.91.94c.41.23.93.35,1.57.35,1.02,0,1.75-.25,2.19-.75s.66-1.19.65-2.08c0-.27-.02-.53-.06-.79-.04-.26-.09-.54-.17-.85-.07-.31-.16-.66-.27-1.06-.09-.3.02-.49.33-.56l1.41-.36c.15-.03.27-.02.34.05.07.07.13.16.17.28l.3,1.06c.1.33.2.61.29.84.09.23.23.43.42.6.47-.99,1.04-1.84,1.68-2.53.65-.69,1.34-1.22,2.07-1.58.73-.36,1.48-.55,2.23-.55s1.37.15,1.87.46c.5.31.87.71,1.11,1.2.24.49.36,1.02.36,1.6,0,.87-.2,1.62-.59,2.25-.39.63-.99,1.11-1.78,1.44s-1.81.5-3.03.5c-.64,0-1.2-.02-1.68-.05s-.9-.07-1.25-.12c-.35-.05-.66-.12-.92-.22-.26-.09-.49-.2-.69-.31-.07.56-.23,1.09-.5,1.59-.27.5-.62.93-1.06,1.31-.44.38-.96.67-1.56.89-.6.22-1.26.32-2,.32Zm7.68-6.16h3.05c.76,0,1.34-.11,1.72-.32.39-.22.58-.52.58-.9,0-.34-.15-.62-.46-.84-.3-.22-.7-.31-1.18-.29-.45,0-.9.11-1.34.31-.44.21-.86.49-1.27.84-.4.35-.77.75-1.1,1.2Zm3.81-6.14c-.07.07-.15.1-.27.09-.11,0-.2-.04-.28-.11l-.88-.88c-.08-.08-.12-.17-.12-.27s.04-.2.12-.27l.88-.88c.08-.08.17-.12.27-.12s.19.04.26.12l.86.88c.2.2.21.39.03.56l-.88.88Z"/>
  </g>
</svg>