<?xml version="1.0" encoding="UTF-8"?>
<svg xmlns="http://www.w3.org/2000/svg" viewBox="0 0 32 32">
  <path d="m29.6,4.6c-1.6-1.6-3.7-2.4-5.8-2.4s-4.2.8-5.8,2.4l-2,2-2-2c-1.6-1.6-3.7-2.4-5.8-2.4s-4.2.8-5.8,2.4c-3.2,3.21-3.2,8.4,0,11.6l13.6,13.6,11.6-11.6,2-2c1.6-1.6,2.4-3.7,2.4-5.8s-.8-4.2-2.4-5.8Zm-13.6,19.54L5.23,13.37c-1.64-1.63-1.64-4.3,0-5.94.79-.79,1.85-1.23,2.97-1.23s2.18.44,2.97,1.23l10.77,10.77-5.94,5.94Zm10.77-10.77l-2,2-5.94-5.94,2-2c.79-.79,1.84-1.23,2.97-1.23s2.18.44,2.97,1.23,1.23,1.85,1.23,2.97-.44,2.18-1.23,2.97Z"/>
</svg>