<?xml version="1.0" encoding="UTF-8"?>
<svg viewBox="0 0 32 32">
  <path d="m16,32C7.18,32,0,24.82,0,16S7.18,0,16,0c.31,0,.63.01.94.03.81.05,1.5.59,1.76,1.35s.03,1.61-.57,2.15c-.31.27-.48.67-.48,1.1,0,.63.4,1.2,1,1.41.8.28,1.33,1.04,1.33,1.89,0,1.83,1.46,3.29,3.25,3.29.42,0,.82-.08,1.2-.23.67-.27,1.44-.16,2,.29.52.42.8,1.07.74,1.73.02.35.29.6.62.6.2,0,.38-.09.49-.24.48-.67,1.33-.98,2.13-.77.8.21,1.39.89,1.48,1.72.06.55.09,1.12.09,1.69,0,8.82-7.18,16-16,16Zm-2.33-27.77c-5.5,1.09-9.67,5.95-9.67,11.77,0,6.62,5.38,12,12,12,6.07,0,11.11-4.53,11.89-10.39-1.79.06-3.35-.95-4.15-2.41-.17.01-.34.02-.51.02-3.58,0-6.56-2.6-7.14-6.02-1.5-1-2.44-2.71-2.44-4.57,0-.13,0-.27.01-.4Zm13.5,8.93h0s0,0,0,0Zm0,0s0,0,0,0c0,0,0,0,0,0Zm0,0s0,0,0,0c0,0,0,0,0,0Zm0,0h0s0,0,0,0Z"/>
  <path d="m12.26,22.93c.55,0,1-.45,1-1s-.45-1-1-1h0c-.55,0-.99.45-.99,1s.45,1,1,1Z"/>
  <path d="m22.83,23.38c.55,0,1-.45,1-1s-.45-1-1-1h0c-.55,0-.99.45-.99,1s.45,1,1,1Z"/>
  <path d="m8.64,18.15c1.1,0,2-.9,2-2s-.89-2-2-2h-.02c-1.1,0-1.99.9-1.99,2s.9,2,2,2Z"/>
  <path d="m17.33,19.93c1.1,0,2-.9,2-2s-.89-2-2-2h-.02c-1.1,0-1.99.9-1.99,2s.9,2,2,2Z"/>
  <path d="m27.77,8.79c1.1,0,2-.9,2-2s-.89-2-2-2h-.02c-1.1,0-1.99.9-1.99,2s.9,2,2,2Z"/>
  <path d="m22.83,4.36c.55,0,1-.45,1-1s-.45-1-1-1h0c-.55,0-.99.45-.99,1s.45,1,1,1Z"/>
</svg>