<?xml version="1.0" encoding="UTF-8"?>
<svg viewBox="0 0 36 24">
  <defs>
    <style>
      .flag-red {
        fill: #eb1d33;
      }

      .flag-blue {
        fill: #1e6ab3;
      }

      .flag-white {
        fill: #f1f5f9;
      }
    </style>
  </defs>
  <g id="en-flag">
    <rect class="flag-blue" x="0" width="36" height="24"/>
    <polygon class="flag-white" points="36 2.87 28.4 8 36 8 36 16 28.4 16 36 21.13 36 24 31.33 24 22 17.71 22 24 14 24 14 17.71 4.68 24 0 24 0 21.12 7.6 16 0 16 0 8 7.6 8 0 2.87 0 0 4.68 0 14 6.28 14 0 22 0 22 6.28 31.32 0 36 0 36 2.87"/>
    <g>
      <polygon class="flag-red" points="36 0 33.32 0 22 7.63 22 8 24.14 8 36 0"/>
      <polygon class="flag-red" points="24.14 16 36 24 36 22.19 26.82 16 24.14 16"/>
      <polygon class="flag-red" points="11.86 8 0 0 0 1.81 9.18 8 11.86 8"/>
      <polygon class="flag-red" points="0 24 2.68 24 14 16.36 14 16 11.86 16 0 24"/>
      <polygon class="flag-red" points="36 9.5 20.5 9.5 20.5 0 15.5 0 15.5 9.5 0 9.5 0 14.5 15.5 14.5 15.5 24 20.5 24 20.5 14.5 36 14.5 36 9.5"/>
    </g>
  </g>
</svg>