<?xml version="1.0" encoding="UTF-8"?>
<svg xmlns="http://www.w3.org/2000/svg" viewBox="0 0 32 32">
  <path d="m16,0C7.16,0,0,7.16,0,16s7.16,16,16,16,16-7.16,16-16S24.84,0,16,0Zm11.82,14h-3.9c-.24-3.32-1.05-6.3-2.25-8.57,3.2,1.72,5.52,4.86,6.14,8.57Zm-11.82,13c-.93,0-3.43-3.09-3.91-9h7.83c-.48,5.91-2.98,9-3.91,9Zm-3.91-13c.48-5.91,2.98-9,3.91-9s3.43,3.09,3.91,9h-7.83Zm-1.76-8.57c-1.2,2.26-2.01,5.25-2.25,8.57h-3.9c.63-3.71,2.95-6.84,6.14-8.57Zm-6.14,12.57h3.9c.24,3.32,1.05,6.3,2.25,8.57-3.2-1.72-5.52-4.86-6.14-8.57Zm17.49,8.57c1.2-2.26,2.01-5.25,2.25-8.57h3.9c-.63,3.71-2.95,6.84-6.14,8.57Z"/>
</svg>