<?xml version="1.0" encoding="UTF-8"?>
<svg xmlns="http://www.w3.org/2000/svg" viewBox="0 0 32 32">
  <path d="m16.01,2.01c-7.75,0-14.01,6.31-14.01,14.12,0,6.24,4.01,11.52,9.58,13.39.7.14.95-.3.95-.68,0-.33-.02-1.45-.02-2.62-3.9.84-4.71-1.68-4.71-1.68-.63-1.64-1.55-2.06-1.55-2.06-1.28-.86.09-.86.09-.86,1.42.09,2.16,1.45,2.16,1.45,1.25,2.15,3.27,1.54,4.08,1.17.12-.91.49-1.54.88-1.89-3.11-.33-6.38-1.54-6.38-6.96,0-1.54.56-2.8,1.44-3.79-.14-.35-.63-1.8.14-3.74,0,0,1.18-.37,3.85,1.45,1.14-.31,2.32-.47,3.5-.47,1.18,0,2.39.16,3.5.47,2.67-1.82,3.85-1.45,3.85-1.45.77,1.94.28,3.39.14,3.74.9.98,1.44,2.24,1.44,3.79,0,5.42-3.27,6.61-6.4,6.96.51.44.95,1.29.95,2.62,0,1.89-.02,3.41-.02,3.88,0,.37.26.82.95.68,5.57-1.87,9.58-7.15,9.58-13.39.02-7.81-6.26-14.12-13.99-14.12Z"/>
</svg>