<?xml version="1.0" encoding="UTF-8"?>
<svg xmlns="http://www.w3.org/2000/svg" viewBox="0 0 32 32">
  <path d="m23.76,9.58c-3.04.01-5.36,2.03-6.22,5.24-1.45-2.24-2.59-4.79-3.24-6.95l-3.2.02.04,8.49c0,1.68-1.35,3.05-3.03,3.06-1.68,0-3.05-1.35-3.06-3.03h0l-.04-8.49-3.21.02.04,8.49c.01,3.52,2.83,6.32,6.27,6.3,3.45-.02,6.24-2.83,6.22-6.36v-1.44c.64,1.28,1.45,2.64,2.33,3.83l-1.96,9.38,3.28-.02,1.41-6.82c1.29.8,2.73,1.27,4.41,1.26,3.53-.02,6.4-2.91,6.38-6.6-.02-3.53-2.91-6.4-6.44-6.38h0Zm.05,9.69c-1.28,0-2.57-.55-3.61-1.43l.31-1.29v-.08c.23-1.36.94-3.69,3.35-3.7,1.77,0,3.21,1.42,3.22,3.19-.07,1.84-1.59,3.29-3.27,3.3h0Z"/>
</svg>