<?xml version="1.0" encoding="UTF-8"?>
<svg xmlns="http://www.w3.org/2000/svg" viewBox="0 0 32 32">
  <path d="m0,0v32h32V0H0Zm28,28H4V4h24v24Z"/>
  <path d="m16.06,22.33c.31,0,.63-.02.95-.07,3.5-.52,5.91-3.77,5.39-7.27-.41-2.79-2.6-4.98-5.39-5.39-.31-.05-.62-.07-.94-.07s-.63.02-.94.07c-3.5.52-5.91,3.77-5.39,7.27.47,3.18,3.2,5.46,6.32,5.46Zm-1.92-7.83c.38-.51.94-.85,1.58-.94.12-.02.23-.03.35-.03s.24,0,.35.03c1.05.16,1.87.97,2.02,2.02.09.63-.06,1.27-.45,1.78-.38.51-.94.85-1.58.94-.12.02-.24.03-.36.03-1.18,0-2.19-.88-2.37-2.05-.09-.63.06-1.27.45-1.78Z"/>
  <path d="m23.82,10.2c1.1,0,2-.9,2-2s-.9-2-2-2h-.02c-1.1,0-1.99.9-1.99,2s.9,2,2.01,2Z"/>
</svg>