<?xml version="1.0" encoding="UTF-8"?>
<svg xmlns="http://www.w3.org/2000/svg" viewBox="0 0 32 32">
  <path d="m18.79,2.66c.04-.39-.16-.67-.6-.84l-.7-.27c-.18-.07-.3-.14-.37-.22-.07-.08-.09-.17-.08-.28.02-.15.09-.26.23-.34.14-.08.31-.1.51-.08.5.06.73.28.69.68l.37.04s0-.04,0-.05c.02-.18-.02-.34-.11-.51-.16-.28-.46-.44-.9-.5-.31-.04-.57,0-.78.12-.24.13-.37.35-.4.63-.04.37.13.62.51.77l.74.28c.36.14.53.32.5.54-.02.18-.11.31-.26.39-.13.07-.32.09-.57.06-.27-.03-.48-.12-.61-.25-.14-.14-.19-.32-.17-.54h0s-.37-.05-.37-.05c-.02.26.01.47.11.64.18.31.51.49.98.54.37.04.67,0,.88-.13.24-.15.38-.37.41-.65Z"/>
  <path d="m21.4,3.27c.11-.32.12-.61.04-.84-.09-.27-.29-.47-.61-.57-.28-.09-.53-.09-.75.02-.26.13-.45.38-.58.75-.11.32-.12.59-.04.83.09.27.3.46.62.57.28.09.52.09.74-.02.25-.12.44-.37.57-.73Zm-1.2.45c-.18-.06-.3-.17-.36-.32-.08-.18-.07-.39.02-.65.08-.25.2-.42.36-.53.16-.1.33-.13.52-.06.17.06.29.17.35.33.07.18.06.4-.03.67-.08.24-.2.41-.35.51-.15.1-.32.12-.5.05Z"/>
  <path d="m21.93,4.76l.87-1.71.32.17.13-.25-.32-.17.16-.31c.07-.13.17-.16.32-.09.02.01.04.02.07.04l.03.02.13-.26c-.05-.04-.11-.08-.17-.11-.15-.07-.28-.09-.4-.05-.12.04-.22.13-.29.27l-.17.34-.26-.14-.13.25.26.14-.87,1.71.31.16Z"/>
  <path d="m23.49,3.42l.25.16-.88,1.36c-.13.19-.07.37.17.52.08.05.2.11.36.18l.14-.28c-.11-.04-.18-.07-.23-.1-.05-.03-.08-.07-.09-.12-.01-.05,0-.1.03-.14l.8-1.23.38.24.15-.24-.38-.24.33-.51-.38-.06-.24.38-.25-.16-.15.24Z"/>
  <polygon points="24.36 6.41 25.85 5.43 25 7 25.29 7.28 27.27 6.11 26.98 5.84 25.49 6.79 26.34 5.25 26.03 4.96 24.55 5.92 25.39 4.36 25.11 4.1 24.07 6.14 24.36 6.41"/>
  <path d="m28.1,7.75c.19.27.19.47,0,.6l-.15.1-.54-.5c-.2-.18-.35-.29-.44-.32-.17-.06-.35-.03-.52.09-.15.1-.24.23-.27.39-.03.18.01.37.15.57.19.28.42.43.69.44-.16.13-.18.3-.05.48.03.04.09.1.17.16l.23-.16s-.02-.01-.03-.02c-.04-.03-.07-.05-.07-.06-.05-.08-.03-.15.05-.21l1.02-.69c.33-.23.34-.57.03-1.02-.19-.28-.4-.43-.63-.46-.13-.01-.28.03-.45.13l.2.29c.23-.13.43-.06.6.2Zm-.7,1.08c-.09.06-.19.07-.31.05-.19-.04-.34-.15-.46-.32-.16-.24-.15-.42.03-.55.08-.05.16-.07.25-.03.09.03.21.12.37.26l.44.39-.32.22Z"/>
  <path d="m27.48,10.5l1.03-.49c.28-.13.51-.15.68-.06.09.05.19.18.29.38l.32-.15s-.03-.09-.04-.12c-.12-.25-.34-.37-.67-.35l.36-.17-.14-.29-1.99.95.15.32Z"/>
  <path d="m28.97,11.11c-.31.09-.54.24-.69.45-.17.23-.2.51-.11.83.07.24.19.42.36.54.17.12.37.17.61.15l-.1-.34c-.29-.02-.47-.16-.55-.44-.07-.22-.03-.42.11-.59.08-.11.22-.19.4-.24l.46,1.55h.01c.29-.09.5-.18.62-.28.15-.12.25-.26.3-.44.05-.18.05-.37-.01-.57-.08-.27-.24-.47-.46-.59-.26-.14-.57-.15-.94-.04Zm.8.35c.14.08.24.2.29.37.05.17.03.33-.05.47s-.21.24-.4.3l-.35-1.18c.19-.04.36-.03.5.05Z"/>
  <polygon points="31.78 14.77 28.72 14.82 28.75 17.01 29.1 17.01 29.07 15.2 30.12 15.18 30.15 16.85 30.49 16.85 30.47 15.18 31.44 15.16 31.47 16.89 31.82 16.89 31.78 14.77"/>
  <path d="m28.59,18.02l1.18.24c.22.04.38.13.49.26.11.13.15.29.11.47-.03.14-.09.24-.18.3-.09.06-.2.08-.33.06l-1.49-.3-.07.34,1.62.33c.18.04.33,0,.46-.1s.22-.26.26-.47c.06-.3-.03-.57-.27-.8l.36.07.06-.32-2.16-.43-.07.34Z"/>
  <path d="m29.15,20.33c-.32-.14-.62-.16-.87-.06-.24.09-.41.25-.51.48-.1.24-.07.49.09.75l-.13-.05c-.26-.11-.43-.22-.51-.34-.09-.14-.09-.32,0-.53.06-.16.15-.26.26-.33.08-.04.17-.05.28-.02l.14-.33c-.19-.06-.36-.05-.52.03-.18.09-.32.26-.43.52-.14.32-.15.59-.03.81.11.21.39.41.83.59l1.7.71.12-.3-.3-.13c.3-.06.5-.22.61-.48.1-.24.1-.48-.01-.71-.13-.26-.37-.47-.72-.61Zm.42,1.23c-.07.16-.18.26-.34.31-.18.05-.4.03-.66-.08-.23-.1-.4-.22-.49-.37-.09-.15-.1-.31-.03-.49.07-.17.18-.27.34-.32.18-.06.4-.04.65.06.24.1.41.23.5.39s.11.33.04.5Z"/>
  <path d="m29.42,23.63c-.06.01-.1.05-.13.1-.03.05-.04.11-.02.16s.05.1.1.13c.05.03.1.04.16.02s.1-.05.13-.1c.03-.05.04-.1.02-.16s-.05-.1-.1-.13c-.05-.03-.11-.04-.16-.02Z"/>
  <rect x="27.8" y="21.84" width=".35" height="2.2" transform="translate(-5.94 35.55) rotate(-59.75)"/>
  <path d="m26.37,23.41l.95.74c.18.14.28.29.32.46s0,.32-.11.47c-.09.11-.18.17-.3.19s-.22-.02-.32-.1l-1.19-.93-.21.27,1.31,1.02c.14.11.29.15.45.12.16-.03.31-.13.44-.3.19-.24.23-.52.12-.83l.29.23.2-.26-1.73-1.35-.22.28Z"/>
  <path d="m25.13,25.32c-.28-.06-.55.03-.8.24-.19.16-.3.35-.35.56-.04.2,0,.41.11.61l.26-.23c-.1-.27-.05-.5.17-.69.17-.15.37-.2.58-.14.13.03.26.12.39.26l-1.22,1.06h0c.2.24.37.39.51.46.17.09.34.12.53.09.18-.03.36-.11.51-.25.22-.19.33-.41.35-.66.02-.29-.1-.58-.35-.87-.22-.25-.45-.4-.7-.44Zm.49,1.74c-.13.12-.28.17-.44.15s-.31-.1-.43-.24l.93-.81c.12.16.17.32.16.48s-.08.3-.22.42Z"/>
  <path d="m23.18,26.89c-.27-.11-.55-.08-.83.09-.22.13-.37.29-.44.48-.08.19-.08.4,0,.62l.3-.18c-.05-.28.05-.5.3-.64.2-.12.4-.13.59-.03.12.06.23.17.33.33l-1.41.81h0c.15.27.29.45.42.55.15.12.31.18.5.19.19,0,.37-.04.55-.15.25-.14.4-.34.47-.59.07-.29.01-.59-.18-.92-.16-.28-.36-.47-.6-.57Zm.44,1.43c-.04.16-.14.28-.29.37-.15.09-.31.11-.47.06s-.28-.15-.38-.32l1.07-.62c.09.18.11.34.07.5Z"/>
  <path d="m20.65,27.85l.41,1.07c.11.29.12.52.01.68-.06.09-.19.18-.4.26l.13.34s.09-.02.12-.03c.26-.1.39-.31.4-.64l.14.38.3-.12-.79-2.05-.33.13Z"/>
  <path d="m18.37,28.82c-.11.02-.2.08-.27.18-.07.1-.09.2-.07.32.02.11.08.2.18.27s.2.09.31.07c.11-.02.21-.08.27-.18s.09-.2.07-.31c-.02-.12-.08-.21-.18-.27-.1-.07-.2-.09-.32-.07Z"/>
  <path d="m15.02,28.63c-.74-.05-1.19.31-1.34,1.1l.4.03c.05-.19.11-.34.17-.45.15-.24.4-.35.74-.33.28.02.51.13.67.34.19.24.26.56.23.96-.03.36-.12.64-.29.85-.19.24-.45.35-.77.32-.26-.02-.46-.1-.58-.23-.1-.1-.16-.26-.19-.46l-.4-.03c.07.66.44,1.02,1.11,1.07.41.03.74-.08.99-.32.31-.3.48-.69.51-1.18.04-.5-.08-.92-.36-1.24-.21-.25-.52-.39-.92-.42Z"/>
  <path d="m12.54,29.42c-.08.3-.21.49-.39.56-.1.04-.26.03-.48-.03l-.09.35s.08.03.12.04c.27.07.5-.02.7-.28l-.1.39.31.08.56-2.13-.34-.09-.29,1.1Z"/>
  <path d="m10.96,27.61c-.23-.1-.45-.12-.65-.07s-.37.17-.51.37l.32.14c.2-.21.43-.26.69-.14.21.09.34.25.38.46.03.13,0,.29-.07.46l-1.49-.65h0c-.12.29-.18.51-.19.67,0,.19.04.36.15.51.1.16.25.27.44.36.26.11.51.12.75.03.27-.11.49-.34.64-.69.13-.3.17-.57.1-.82-.07-.28-.26-.49-.56-.62Zm-.32,1.82c-.15.06-.31.06-.47-.02-.16-.07-.27-.18-.33-.34-.06-.15-.05-.32.03-.49l1.13.49c-.09.17-.21.29-.36.35Z"/>
  <path d="m9.05,26.57c-.28-.19-.55-.25-.8-.16.1-.18.06-.34-.13-.47-.05-.03-.12-.06-.22-.09l-.16.23s.02,0,.04,0c.05.01.08.02.09.03.08.05.09.12.02.21l-.7,1.01c-.23.33-.11.65.34.96.28.19.53.26.75.2.13-.03.26-.13.37-.28l-.29-.2c-.16.2-.38.21-.64.03-.27-.19-.35-.37-.22-.55l.11-.15.68.28c.25.1.43.15.53.14.18,0,.33-.1.45-.27.1-.15.14-.3.11-.46-.03-.18-.15-.34-.34-.48Zm-.07.73c-.06.08-.13.12-.22.12-.09,0-.24-.03-.43-.11l-.55-.2.22-.32c.06-.09.15-.14.27-.15.19-.03.38.02.54.13.24.17.29.34.17.53Z"/>
  <path d="m7.33,25.68c.16-.17.13-.35-.07-.54-.07-.06-.17-.14-.33-.24l-.18.25c.1.06.17.1.21.14.04.04.06.08.07.13,0,.05-.02.09-.05.13l-1,1.07-.33-.31-.19.21.33.31-.42.44.36.12.31-.33.22.2.19-.21-.22-.21,1.11-1.18Z"/>
  <path d="m4.41,26.12c-.06,0-.11.01-.15.05-.04.04-.07.09-.07.14s.01.11.05.16c.04.04.09.07.14.07s.11-.01.15-.05c.04-.04.07-.09.07-.15,0-.06-.01-.11-.05-.15-.04-.05-.09-.07-.15-.07Z"/>
  <rect x="4.61" y="25.01" width="2.2" height=".35" transform="translate(-15.27 10.14) rotate(-41.58)"/>
  <polygon points="4.31 25.27 5.68 23.39 5.47 23.07 3.18 23.62 3.4 23.95 5.22 23.45 4.08 24.94 4.31 25.27"/>
  <path d="m3.83,22.53c.3-.13.51-.31.63-.54.14-.25.14-.53,0-.84-.1-.23-.25-.39-.43-.49-.18-.1-.39-.12-.62-.07l.14.32c.29-.02.49.1.61.36.09.21.08.41-.03.59-.07.12-.19.21-.36.29l-.66-1.48h-.01c-.28.13-.47.25-.58.36-.13.13-.21.29-.24.48s0,.37.09.56c.12.26.29.44.53.53.28.1.59.08.93-.08Zm-.84-.25c-.15-.06-.26-.17-.34-.33-.07-.16-.08-.32-.01-.47.06-.15.18-.27.36-.34l.5,1.13c-.19.07-.35.07-.51.02Z"/>
  <path d="m3.43,17.63c-.05-.36-.2-.63-.47-.82-.3-.21-.71-.29-1.21-.22-.44.06-.78.2-1.02.43-.28.26-.39.6-.34,1.01l.15,1.17,3.04-.4-.15-1.17Zm-2.59,1.14l-.09-.72c-.08-.61.27-.97,1.06-1.07.78-.1,1.21.15,1.29.76l.09.72-2.35.31Z"/>
  <path d="m2.2,15.75c.33.03.6-.02.81-.16.24-.16.38-.4.41-.73.02-.25-.02-.46-.14-.64-.11-.18-.28-.3-.51-.36l-.03.35c.26.12.38.33.35.61-.02.23-.13.4-.32.5-.12.07-.27.09-.46.08l.15-1.62h-.01c-.3-.03-.53-.02-.68.03-.18.05-.33.15-.44.3-.11.15-.18.33-.2.53-.03.28.04.52.21.72.19.22.48.35.85.39Zm-.53-1.49c.13-.1.29-.14.48-.13l-.11,1.23c-.19-.03-.34-.11-.45-.23-.11-.12-.15-.27-.13-.45.02-.18.09-.32.22-.42Z"/>
  <polygon points="3.84 12.43 1.95 11.02 1.84 11.4 3.39 12.48 1.51 12.56 1.41 12.95 3.73 12.8 3.84 12.43"/>
  <path d="m3.21,10.82c.29.15.57.19.81.14.28-.06.5-.24.65-.54.11-.23.15-.44.1-.65-.04-.21-.16-.38-.34-.52l-.16.31c.2.21.24.44.11.7-.1.21-.26.33-.48.36-.13.02-.29-.01-.46-.09l.72-1.45h-.01c-.27-.14-.49-.21-.65-.22-.19-.02-.36.03-.52.12-.16.1-.29.24-.38.43-.13.26-.15.5-.06.75.1.28.32.5.66.67Zm-.31-1.27c.08-.16.2-.26.35-.31.16-.05.32-.03.49.05l-.54,1.11c-.17-.1-.28-.23-.34-.38-.05-.15-.04-.31.04-.47Z"/>
  <rect x="4.05" y="6.52" width=".35" height="3.06" transform="translate(-4.81 7.04) rotate(-55.96)"/>
  <path d="m5.8,7.96c.29.02.54-.1.76-.35.19-.22.28-.45.27-.69-.02-.28-.17-.55-.45-.8-.26-.23-.51-.35-.76-.37-.29-.02-.54.09-.76.34-.2.22-.28.45-.27.7.02.29.18.56.47.82.25.22.5.34.75.36Zm-.71-1.67c.12-.13.26-.2.43-.19.19,0,.4.1.6.29.19.17.3.34.33.52.03.18-.02.34-.15.49-.12.14-.27.21-.44.21-.19,0-.39-.09-.59-.27-.19-.17-.31-.35-.34-.54s.01-.35.15-.5Z"/>
  <path d="m8.42,6.99l-.71-.93c.26.05.5,0,.71-.17.21-.16.33-.37.36-.61.03-.28-.06-.56-.28-.85-.21-.27-.43-.44-.68-.52-.28-.09-.54-.04-.79.15-.24.19-.35.43-.32.73l-.2-.27-.26.2,1.89,2.48.28-.21Zm-1.45-2.18c0-.19.07-.34.22-.45.14-.11.3-.14.47-.11.2.04.38.17.54.38.15.19.22.38.22.57,0,.19-.08.34-.24.46-.14.11-.29.14-.45.11-.19-.04-.37-.16-.53-.37-.15-.2-.23-.4-.23-.59Z"/>
  <path d="m9.6,4.68c.26.13.54.12.84-.03.23-.11.38-.26.48-.45.09-.19.11-.4.05-.62l-.32.16c.03.29-.08.49-.34.62-.21.1-.41.1-.6,0-.12-.07-.22-.18-.31-.35l1.45-.72h0c-.13-.28-.26-.47-.38-.58-.14-.13-.3-.2-.49-.22s-.37.02-.56.11c-.26.13-.42.31-.5.55-.09.28-.05.59.11.93.15.29.33.5.56.61Zm-.35-1.45c.05-.15.16-.27.32-.35.16-.08.31-.09.47-.03.15.06.27.17.36.34l-1.11.54c-.07-.18-.09-.35-.04-.5Z"/>
  <path d="m12.18,3.9l-.34-1.09c-.09-.3-.08-.52.03-.68.06-.09.2-.16.42-.23l-.11-.34s-.09.01-.12.02c-.26.08-.41.29-.44.61l-.12-.38-.31.1.66,2.1.34-.1Z"/>
  <path d="m14.54,3.07c.11-.01.21-.07.28-.16s.1-.2.09-.31c-.01-.11-.07-.21-.16-.28-.09-.07-.19-.1-.31-.09-.12.01-.21.07-.28.16s-.1.19-.09.31c.01.12.07.21.16.28.09.07.19.1.31.09Z"/>
</svg>