<?xml version="1.0" encoding="UTF-8"?>
<svg xmlns="http://www.w3.org/2000/svg" viewBox="0 0 32 32">
  <defs>
    <style>
      .flag-clip-mask {
        clip-path: url(#clippath);
      }
      .blue-flag-color {
        fill: #1e6ab3;
      }
      .red-flag-color {
        fill: #e4223a;
      }
      .white-flag-color {
        fill: #f1f5f9;
      }
    </style>
    <clipPath id="clippath">
      <rect id="mask" data-name="mask" width="32" height="32" rx="8" ry="8"/>
    </clipPath>
  </defs>
  <g id="en-flag" class="flag-clip-mask">
    <rect class="blue-flag-color" x="-8" width="48" height="32"/>
    <polygon class="white-flag-color" points="40 3.83 29.87 10.67 40 10.67 40 21.33 29.87 21.33 40 28.17 40 32 33.77 32 21.33 23.61 21.33 32 10.67 32 10.67 23.61 -1.76 32 -8 32 -8 28.16 2.13 21.33 -8 21.33 -8 10.67 2.13 10.67 -8 3.83 -8 0 -1.76 0 10.67 8.37 10.67 0 21.33 0 21.33 8.37 33.76 0 40 0 40 3.83"/>
    <g>
      <polygon class="red-flag-color" points="40 0 36.43 0 21.33 10.17 21.33 10.67 24.19 10.67 40 0"/>
      <polygon class="red-flag-color" points="24.19 21.33 40 32 40 29.59 27.76 21.33 24.19 21.33"/>
      <polygon class="red-flag-color" points="7.81 10.67 -8 0 -8 2.41 4.24 10.67 7.81 10.67"/>
      <polygon class="red-flag-color" points="-8 32 -4.43 32 10.67 21.81 10.67 21.33 7.81 21.33 -8 32"/>
      <polygon class="red-flag-color" points="40 12.67 19.33 12.67 19.33 0 12.67 0 12.67 12.67 -8 12.67 -8 19.33 12.67 19.33 12.67 32 19.33 32 19.33 19.33 40 19.33 40 12.67"/>
    </g>
  </g>
</svg>